# AST/ASF file generated using VICON BodyLanguage
# -----------------------------------------------
:version 1.10
:name VICON
:units
  mass 1.0
  length 0.45
  angle deg
:documentation
   .ast/.asf automatically generated from VICON data using
   VICON BodyBuilder and BodyLanguage model FoxedUp or BRILLIANT.MOD
:root
   order TX TY TZ RX RY RZ
   axis XYZ
   position 0 0 0  
   orientation 0 0 0 
:bonedata
  begin
     id 1 
     name lhipjoint
     direction 0.578396 -0.714046 0.394458 
     length 2.21935 
     axis 0 0 0  XYZ
  end
  begin
     id 2 
     name lfemur
     direction 0.34202 -0.939693 0  
     length 6.39105  
     axis 0 0 20  XYZ
    dof rx ry rz
    limits (-160.0 20.0)
           (-70.0 70.0)
           (-60.0 70.0)
  end
  begin
     id 3 
     name ltibia
     direction 0.34202 -0.939693 0   
     length 6.99037   
     axis 0 0 20   XYZ
    dof rx
    limits (-10.0 170.0)
  end
  begin
     id 4 
     name lfoot
     direction 0.0582372 -0.160005 0.985397   
     length 2.06111   
     axis -90 7.62852e-016 20   XYZ
    dof rx rz
    limits (-45.0 90.0)
           (-70.0 20.0)
  end
  begin
     id 5 
     name ltoes
     direction 1.53556e-011 -4.21875e-011 1   
     length 1.04074   
     axis -90 7.62852e-016 20   XYZ
    dof rx
    limits (-90.0 20.0)
  end
  begin
     id 6 
     name rhipjoint
     direction -0.558179 -0.726269 0.40121   
     length 2.182  
     axis 0 0 0  XYZ 
  end
  begin
     id 7 
     name rfemur
     direction -0.34202 -0.939693 0   
     length 6.51172   
     axis 0 0 -20   XYZ
    dof rx ry rz
    limits (-160.0 20.0)
           (-70.0 70.0)
           (-70.0 60.0)
  end
  begin
     id 8 
     name rtibia
     direction -0.34202 -0.939693 0   
     length 7.02607   
     axis 0 0 -20   XYZ
    dof rx
    limits (-10.0 170.0)
 end
 begin
     id 9 
     name rfoot
     direction -0.0788856 -0.216737 0.973038   
     length 1.96734  
     axis -90 -7.62852e-016 -20   XYZ
    dof rx rz
    limits (-45.0 90.0)
           (-20.0 70.0)
  end
  begin
     id 10 
     name rtoes
     direction -1.53567e-011 -4.21783e-011 1   
     length 0.990825   
     axis -90 -7.62852e-016 -20   XYZ
    dof rx
    limits (-90.0 20.0)
  end
  begin
     id 11 
     name lowerback
     direction 0.00668177 0.999323 -0.0361741   
     length 1.7655   
     axis 0 0 0   XYZ
    dof rx ry rz
    limits (-20.0 45.0)
           (-30.0 30.0)
           (-30.0 30.0)
  end
  begin
     id 12 
     name upperback
     direction -0.00222086 0.99851 0.0545167   
     length 1.74912   
     axis 0 0 0   XYZ
    dof rx ry rz
    limits (-20.0 45.0)
           (-30.0 30.0)
           (-30.0 30.0)
  end
  begin
     id 13 
     name thorax
     direction -0.00733971 0.997496 0.0703443   
     length 1.75715   
     axis 0 0 0   XYZ
    dof rx ry rz
    limits (-20.0 45.0)
           (-30.0 30.0)
           (-30.0 30.0)
  end
  begin
     id 14 
     name lowerneck
     direction 0.0279797 0.994795 0.0979765   
     length 1.46939   
     axis 0 0 0   XYZ
    dof rx ry rz
    limits (-20.0 45.0)
           (-30.0 30.0)
           (-30.0 30.0)
  end
  begin
     id 15 
     name upperneck
     direction 0.00339187 0.976776 -0.214238   
     length 1.48018   
     axis 0 0 0   XYZ
    dof rx ry rz
    limits (-20.0 45.0)
           (-30.0 30.0)
           (-30.0 30.0)
  end
  begin
     id 16
     name head
     direction -0.00263506 0.996603 -0.0823096  
     length 1.4976  
     axis 0 0 0   XYZ
    dof rx ry rz
    limits (-20.0 45.0)
           (-30.0 30.0)
           (-30.0 30.0)
  end
  begin
     id 17 
     name lclavicle
     direction 0.894044 0.44508 -0.0508781  
     length 3.03024  
     axis 0 0 0   XYZ
    dof ry rz
    limits (-20.0 10.0)
           (0.0 20.0)
  end
  begin
     id 18 
     name lhumerus
     direction 1 -4.48961e-011 -2.39475e-018   
     length 4.4661   
     axis 180 -30 -90   XYZ
    dof rx ry rz
    limits (-60.0 90.0)
           (-90.0 90.0)
           (-90.0 90.0)
  end
  begin
     id 19
     name lradius
     direction 1 -4.48961e-011 9.29328e-028   
     length 3.41414   
     axis 180 -30 -90   XYZ
    dof rx
    limits (-10.0 170.0)
  end
  begin
     id 20
     name lwrist
     direction 1 -4.48985e-011 1.53461e-026   
     length 1.70707   
     axis -1.09697e-014 90 90   XYZ
    dof ry
    limits (-180.0 0.0)
 end
  begin
     id 21 
     name lhand
     direction 1 -4.48966e-011 3.06923e-026   
     length 0.328298   
     axis -1.95843e-014 90 90   XYZ
    dof rx rz
    limits (-90.0 90.0)
           (-45.0 45.0)
  end
  begin
     id 22 
     name lfingers
     direction 1 -4.48893e-011 6.13845e-026   
     length 0.264682   
     axis -3.91686e-014 90 90   XYZ
    dof rx
    limits (0.0 90.0)
  end
  begin
     id 23
     name lthumb
     direction 0.707107 -6.34876e-011 0.707107   
     length 0.380032   
     axis -90 45 2.85299e-015   XYZ
    dof rx rz
    limits (-45.0 45.0)
           (-45.0 45.0)
  end
  begin
     id 24 
     name rclavicle
     direction -0.936955 0.347862 -0.0332887   
     length 3.26927  
     axis 0 0 0   XYZ 
    dof ry rz
    limits (-10.0 20.0)
           (-20.0 0.0)
  end
  begin
     id 25 
     name rhumerus
     direction -1 -4.4896e-011 1.78637e-018  
     length 4.40431   
     axis 180 30 90   XYZ
    dof rx ry rz
    limits (-90.0 60.0)
           (-90.0 90.0)
           (-90.0 90.0)
  end
  begin
     id 26 
     name rradius
     direction -1 -4.48955e-011 9.34036e-027   
     length 3.04688   
     axis 180 30 90   XYZ
    dof rx
    limits (-10.0 170.0)
  end
  begin
     id 27 
     name rwrist
     direction -1 -4.49011e-011 1.53461e-026   
     length 1.52344   
     axis -1.09697e-014 -90 -90   XYZ
    dof ry
    limits (-180.0 0.0)
  end
  begin
     id 28
     name rhand
     direction -1 -4.48834e-011 3.06923e-026   
     length 0.500489   
     axis -1.95843e-014 -90 -90   XYZ
    dof rx rz
    limits (-90.0 90.0)
           (-45.0 45.0)
  end
  begin
     id 29
     name rfingers
     direction -1 -4.48967e-011 6.13845e-026   
     length 0.403507   
     axis -3.91686e-014 -90 -90   XYZ
    dof rx
    limits (0.0 90.0)
  end
  begin
     id 30
     name rthumb
     direction -0.707107 -6.34826e-011 0.707107   
     length 0.579358   
     axis -90 -45 -2.85299e-015   XYZ
    dof rx rz
    limits (-45.0 45.0)
           (-45.0 45.0)
  end
:hierarchy
  begin
    root lhipjoint rhipjoint lowerback
    lhipjoint lfemur
    lfemur ltibia
    ltibia lfoot
    lfoot ltoes
    rhipjoint rfemur
    rfemur rtibia
    rtibia rfoot
    rfoot rtoes
    lowerback upperback
    upperback thorax
    thorax lowerneck lclavicle rclavicle
    lowerneck upperneck
    upperneck head
    lclavicle lhumerus
    lhumerus lradius
    lradius lwrist
    lwrist lhand lthumb
    lhand lfingers
    rclavicle rhumerus
    rhumerus rradius
    rradius rwrist
    rwrist rhand rthumb
    rhand rfingers
  end

#!OML:ASF H:\IndianDance\Patient Classification 1\Patient 1\Session 1\dancer.ASF
:FULLY-SPECIFIED
:DEGREES
373
root 4.22598 14.064 6.42004 -170.806 -3.37858 -171.208
lowerback 9.56638 0.259403 -2.64049
upperback -5.23892 0.174368 5.957
thorax -11.1435 0.402077 8.05171
lowerneck -11.3478 -12.7309 -8.75951
upperneck 14.2572 -21.8811 19.3012
head 9.59392 -10.0007 4.81761
rclavicle -4.52235e-015 -9.54166e-015
rhumerus 3.56842 23.0158 -20.1758
rradius 29.0861
rwrist -32.8888
rhand 45.89 -13.2557
rfingers 7.12502
rthumb 67.0587 -16.583
lclavicle -4.52235e-015 -9.54166e-015
lhumerus -59.0975 -56.194 99.0946
lradius 91.8398
lwrist 80.6456
lhand 15.8442 18.1075
lfingers 7.12502
lthumb 40.6457 43.1354
rfemur -42.5948 -27.7855 28.8058
rtibia 66.0365
rfoot -23.2572 -8.12988
rtoes -0.247489
lfemur -42.6428 23.1251 -12.6967
ltibia 67.7188
lfoot -27.6279 10.1348
ltoes 2.46744
374
root 4.18442 14.0748 6.41471 -170.926 -3.04105 -171.774
lowerback 9.5886 0.279857 -3.13066
upperback -5.17194 0.144927 5.46806
thorax -11.0721 0.423093 7.78159
lowerneck -11.1754 -12.6565 -8.81949
upperneck 14.0736 -21.9198 19.7816
head 9.58123 -10.0324 4.98685
rclavicle 1.15792e-014 -2.82274e-014
rhumerus 3.67724 23.0842 -19.9318
rradius 29.2279
rwrist -32.8317
rhand 46.0228 -13.3633
rfingers 7.12502
rthumb 67.1577 -16.481
lclavicle 1.15792e-014 -2.82274e-014
lhumerus -59.0199 -56.3451 98.7316
lradius 91.9831
lwrist 80.7727
lhand 15.8194 18.1018
lfingers 7.12502
lthumb 40.6223 43.137
rfemur -42.7426 -27.9107 27.8294
rtibia 66.6245
rfoot -22.5907 -7.55533
rtoes -0.480817
lfemur -42.1421 23.3534 -13.461
ltibia 67.3701
lfoot -27.6317 10.1546
ltoes 2.26837
375
root 4.14057 14.0847 6.41022 -171.055 -2.66251 -172.314
lowerback 9.64244 0.315925 -3.52149
upperback -5.11991 0.141721 4.96207
thorax -11.0399 0.446963 7.43389
lowerneck -11.0136 -12.5797 -8.88111
upperneck 13.9327 -21.9513 20.2201
head 9.57875 -10.0613 5.14361
rclavicle 2.74571e-015 -3.39922e-014
rhumerus 3.79981 23.1357 -19.6967
rradius 29.3573
rwrist -32.7069
rhand 46.1709 -13.4723
rfingers 7.12502
rthumb 67.2678 -16.3541
lclavicle 2.74571e-015 -3.39922e-014
lhumerus -58.9554 -56.5354 98.3611
lradius 92.1398
lwrist 80.8993
lhand 15.8308 18.1169
lfingers 7.12502
lthumb 40.6331 43.1488
rfemur -42.9513 -28.0173 26.8682
rtibia 67.2747
rfoot -21.807 -6.9309
rtoes -0.61849
lfemur -41.6471 23.6218 -14.2086
ltibia 67.0288
lfoot -27.6325 10.1836
ltoes 2.12646
376
root 4.09436 14.0931 6.40659 -171.182 -2.244 -172.814
lowerback 9.71773 0.370654 -3.79745
upperback -5.08509 0.17028 4.44617
thorax -11.0437 0.475256 7.00647
lowerneck -10.862 -12.505 -8.95456
upperneck 13.8303 -21.9785 20.6199
head 9.58689 -10.0886 5.29004
rclavicle 9.26834e-015 -3.25013e-014
rhumerus 3.94137 23.2429 -19.4213
rradius 29.5007
rwrist -32.6165
rhand 46.318 -13.6043
rfingers 7.12502
rthumb 67.3766 -16.2496
lclavicle 9.26834e-015 -3.25013e-014
lhumerus -58.8961 -56.7632 97.9971
lradius 92.2978
lwrist 81.0045
lhand 15.8236 18.1746
lfingers 7.12502
lthumb 40.6263 43.2086
rfemur -43.2434 -28.0986 25.9497
rtibia 67.9922
rfoot -20.9067 -6.27137
rtoes -0.620582
lfemur -41.1801 23.9255 -14.9209
ltibia 66.7187
lfoot -27.6562 10.1885
ltoes 2.2398
377
root 4.046 14.0999 6.4036 -171.301 -1.78145 -173.255
lowerback 9.80003 0.442899 -3.94585
upperback -5.06542 0.231301 3.92773
thorax -11.0719 0.507139 6.49967
lowerneck -10.7275 -12.4334 -9.04013
upperneck 13.7657 -22.0021 20.9813
head 9.60676 -10.1134 5.42571
rclavicle -1.75179e-015 3.03147e-014
rhumerus 4.1243 23.4238 -19.0875
rradius 29.6489
rwrist -32.5935
rhand 46.4569 -13.7335
rfingers 7.12502
rthumb 67.4791 -16.153
lclavicle -1.75179e-015 3.03147e-014
lhumerus -58.8217 -57.0174 97.6125
lradius 92.4631
lwrist 81.0906
lhand 15.8102 18.269
lfingers 7.12502
lthumb 40.6137 43.3069
rfemur -43.6319 -28.1469 25.1059
rtibia 68.7714
rfoot -19.8977 -5.58484
rtoes -0.374332
lfemur -40.7505 24.2647 -15.5785
ltibia 66.447
lfoot -27.7121 10.1663
ltoes 2.62209
378
root 3.99582 14.1055 6.40098 -171.413 -1.27483 -173.629
lowerback 9.88568 0.532276 -3.97101
upperback -5.05665 0.325091 3.41405
thorax -11.1166 0.543237 5.92401
lowerneck -10.6122 -12.3651 -9.13731
upperneck 13.7283 -22.0189 21.3073
head 9.63484 -10.134 5.55209
rclavicle -2.91965e-015 -3.97569e-015
rhumerus 4.35691 23.6681 -18.6892
rradius 29.8034
rwrist -32.6444
rhand 46.5709 -13.8602
rfingers 7.12502
rthumb 67.5629 -16.0931
lclavicle -2.91965e-015 -3.97569e-015
lhumerus -58.7267 -57.2901 97.2066
lradius 92.6362
lwrist 81.1439
lhand 15.7813 18.3586
lfingers 7.12502
lthumb 40.5866 43.405
rfemur -44.114 -28.159 24.3529
rtibia 69.6006
rfoot -18.7829 -4.89131
rtoes 0.144999
lfemur -40.3517 24.6372 -16.1724
ltibia 66.2101
lfoot -27.7902 10.1511
ltoes 3.09466
379
root 3.94429 14.1104 6.39856 -171.529 -0.723918 -173.939
lowerback 9.9864 0.637635 -3.88899
upperback -5.05117 0.449617 2.91175
thorax -11.1751 0.584261 5.29643
lowerneck -10.5188 -12.2979 -9.24966
upperneck 13.7043 -22.0193 21.6017
head 9.66613 -10.1455 5.67264
rclavicle 1.83876e-015 4.37326e-015
rhumerus 4.65169 23.9715 -18.2084
rradius 29.9682
rwrist -32.7831
rhand 46.6573 -13.9653
rfingers 7.12502
rthumb 67.6263 -16.0557
lclavicle 1.83876e-015 4.37326e-015
lhumerus -58.599 -57.5643 96.7727
lradius 92.8198
lwrist 81.162
lhand 15.7346 18.4507
lfingers 7.12502
lthumb 40.5427 43.5107
rfemur -44.6685 -28.1361 23.686
rtibia 70.4648
rfoot -17.5676 -4.20025
rtoes 1.01047
lfemur -39.9593 25.0308 -16.6958
ltibia 65.9979
lfoot -27.8931 10.1389
ltoes 3.68026
380
root 3.89205 14.1152 6.39629 -171.655 -0.131863 -174.204
lowerback 10.1077 0.605976 -3.75824
upperback -5.03923 0.62676 2.43032
thorax -11.2357 0.74427 4.63632
lowerneck -10.4391 -12.2288 -9.37435
upperneck 13.6844 -22.0014 21.8728
head 9.69629 -10.1478 5.79067
rclavicle -3.91357e-015 -7.55382e-015
rhumerus 5.01374 24.267 -17.6775
rradius 30.1323
rwrist -32.9415
rhand 46.6936 -14.0727
rfingers 7.12502
rthumb 67.6529 -16.103
lclavicle -3.91357e-015 -7.55382e-015
lhumerus -58.4397 -57.8281 96.2935
lradius 93.0259
lwrist 81.1474
lhand 15.6688 18.5322
lfingers 7.12502
lthumb 40.4808 43.6114
rfemur -45.2844 -28.0762 23.0876
rtibia 71.3511
rfoot -16.2621 -3.52431
rtoes 2.25479
lfemur -39.5621 25.4341 -17.1642
ltibia 65.7999
lfoot -28.0164 10.1331
ltoes 4.37012
381
root 3.83965 14.12 6.39423 -171.791 0.493644 -174.446
lowerback 10.2506 0.747273 -3.55906
upperback -5.03311 0.776433 1.94633
thorax -11.3158 0.772419 3.96386
lowerneck -10.3803 -12.155 -9.5098
upperneck 13.6591 -21.958 22.1249
head 9.72241 -10.1369 5.90823
rclavicle -2.73329e-015 1.55052e-014
rhumerus 5.44019 24.5066 -17.114
rradius 30.2911
rwrist -33.0715
rhand 46.7248 -14.1511
rfingers 7.12502
rthumb 67.6757 -16.1295
lclavicle -2.73329e-015 1.55052e-014
lhumerus -58.2505 -58.0715 95.7558
lradius 93.2719
lwrist 81.1174
lhand 15.5876 18.6072
lfingers 7.12502
lthumb 40.4045 43.71
rfemur -45.9591 -27.9913 22.5368
rtibia 72.2496
rfoot -14.8843 -2.86178
rtoes 3.88942
lfemur -39.1585 25.8328 -17.605
ltibia 65.6076
lfoot -28.1533 10.1451
ltoes 5.13449
382
root 3.78764 14.1247 6.39246 -171.935 1.14132 -174.682
lowerback 10.4152 0.886169 -3.35104
upperback -5.02503 0.928129 1.4721
thorax -11.4039 0.80269 3.29726
lowerneck -10.3364 -12.0757 -9.63755
upperneck 13.6272 -21.888 22.3468
head 9.73881 -10.1125 6.01933
rclavicle 1.4064e-014 2.82274e-014
rhumerus 5.9254 24.6498 -16.5378
rradius 30.4288
rwrist -33.1395
rhand 46.737 -14.2127
rfingers 7.12502
rthumb 67.6846 -16.1709
lclavicle 1.4064e-014 2.82274e-014
lhumerus -58.0405 -58.287 95.1751
lradius 93.5527
lwrist 81.0728
lhand 15.5115 18.6622
lfingers 7.12502
lthumb 40.3329 43.7869
rfemur -46.6901 -27.8878 22.0214
rtibia 73.1508
rfoot -13.4697 -2.23621
rtoes 5.83487
lfemur -38.7533 26.2171 -18.0365
ltibia 65.4169
lfoot -28.2972 10.183
ltoes 5.9481
383
root 3.7368 14.1294 6.39083 -172.08 1.79747 -174.927
lowerback 10.5893 1.01885 -3.15281
upperback -5.01551 1.07379 1.00443
thorax -11.493 0.832179 2.64457
lowerneck -10.3036 -11.9924 -9.76683
upperneck 13.5782 -21.794 22.5529
head 9.74459 -10.0764 6.12981
rclavicle 4.02539e-015 1.90833e-014
rhumerus 6.45779 24.6808 -15.9615
rradius 30.5403
rwrist -33.1421
rhand 46.7537 -14.2573
rfingers 7.12502
rthumb 67.6968 -16.1877
lclavicle 4.02539e-015 1.90833e-014
lhumerus -57.8148 -58.4668 94.5672
lradius 93.8596
lwrist 81.0174
lhand 15.4863 18.705
lfingers 7.12502
lthumb 40.3092 43.837
rfemur -47.4811 -27.7764 21.5343
rtibia 74.0436
rfoot -12.0786 -1.66618
rtoes 8.00611
lfemur -38.3583 26.5815 -18.4795
ltibia 65.2248
lfoot -28.4375 10.2609
ltoes 6.72908
384
root 3.68769 14.1337 6.38931 -172.217 2.44496 -175.19
lowerback 10.7621 1.14017 -2.98368
upperback -5.00897 1.20361 0.539677
thorax -11.5817 0.85765 2.01434
lowerneck -10.2752 -11.9038 -9.86978
upperneck 13.5089 -21.6783 22.7352
head 9.73331 -10.03 6.23237
rclavicle 1.75676e-014 -4.29375e-014
rhumerus 7.02609 24.592 -15.4
rradius 30.6138
rwrist -33.0647
rhand 46.8245 -14.2691
rfingers 7.12502
rthumb 67.7485 -16.0813
lclavicle 1.75676e-014 -4.29375e-014
lhumerus -57.5874 -58.6169 93.9427
lradius 94.187
lwrist 80.9617
lhand 15.4812 18.7366
lfingers 7.12502
lthumb 40.3044 43.8701
rfemur -48.3357 -27.672 21.0754
rtibia 74.9154
rfoot -10.7791 -1.19356
rtoes 10.2801
lfemur -37.9885 26.9157 -18.9471
ltibia 65.0312
lfoot -28.5745 10.385
ltoes 7.44123
385
root 3.64065 14.1377 6.38766 -172.336 3.06852 -175.47
lowerback 10.9227 1.24118 -2.83716
upperback -5.00992 1.30683 0.0742684
thorax -11.6685 0.873553 1.40102
lowerneck -10.2514 -11.8052 -9.93359
upperneck 13.4281 -21.5389 22.8885
head 9.70545 -9.97213 6.3235
rclavicle 6.60959e-015 3.18055e-015
rhumerus 7.62522 24.4028 -14.8705
rradius 30.6464
rwrist -32.9202
rhand 46.9491 -14.2431
rfingers 7.12502
rthumb 67.8391 -15.8462
lclavicle 6.60959e-015 3.18055e-015
lhumerus -57.3653 -58.7311 93.3018
lradius 94.5235
lwrist 80.9077
lhand 15.5397 18.7662
lfingers 7.12502
lthumb 40.3595 43.8828
rfemur -49.2529 -27.5894 20.6567
rtibia 75.7485
rfoot -9.66561 -0.87642
rtoes 12.4525
lfemur -37.6564 27.2159 -19.4406
ltibia 64.8356
lfoot -28.6913 10.5574
ltoes 8.02169
386
root 3.59613 14.1414 6.38583 -172.431 3.65963 -175.762
lowerback 11.0571 1.3233 -2.71495
upperback -5.01893 1.38598 -0.389097
thorax -11.7469 0.881441 0.808079
lowerneck -10.226 -11.7033 -9.96386
upperneck 13.3328 -21.3852 23.0148
head 9.66154 -9.9077 6.40296
rclavicle -1.22998e-014 -1.43125e-014
rhumerus 8.23884 24.1323 -14.3613
rradius 30.6539
rwrist -32.7348
rhand 47.1014 -14.2126
rfingers 7.12502
rthumb 67.9496 -15.5573
lclavicle -1.22998e-014 -1.43125e-014
lhumerus -57.1457 -58.8289 92.6597
lradius 94.86
lwrist 80.8625
lhand 15.6272 18.7819
lfingers 7.12502
lthumb 40.4417 43.8731
rfemur -50.2302 -27.53 20.2906
rtibia 76.5234
rfoot -8.80645 -0.782987
rtoes 14.4209
lfemur -37.3725 27.4869 -19.9553
ltibia 64.6371
lfoot -28.7884 10.7413
ltoes 8.52886
387
root 3.55408 14.1454 6.38358 -172.508 4.21377 -176.063
lowerback 11.1726 1.38862 -2.6055
upperback -5.03439 1.44539 -0.849025
thorax -11.82 0.882523 0.229477
lowerneck -10.3088 -14.077 -9.51683
upperneck 14.4473 -20.7505 22.2572
head 9.82675 -7.9514 6.43833
rclavicle -2.93207e-015 3.97569e-015
rhumerus 8.85614 23.7928 -13.8677
rradius 30.6371
rwrist -32.5119
rhand 47.2849 -14.1645
rfingers 7.12502
rthumb 68.082 -15.1947
lclavicle -2.93207e-015 3.97569e-015
lhumerus -56.9216 -58.918 92.0223
lradius 95.1874
lwrist 80.8264
lhand 15.7319 18.7999
lfingers 7.12502
lthumb 40.5401 43.8607
rfemur -51.2425 -27.4973 19.9796
rtibia 77.2169
rfoot -8.25526 -0.961119
rtoes 16.1466
lfemur -37.1233 27.7362 -20.4803
ltibia 64.4309
lfoot -28.8729 10.9142
ltoes 9.02722
